<svg width="59" height="86" viewBox="0 0 59 86" fill="none" xmlns="http://www.w3.org/2000/svg">
<path fill-rule="evenodd" clip-rule="evenodd" d="M32.8661 1.61386L56.8847 36.1477C57.6523 37.2506 58.0641 38.562 58.0645 39.9058V53.551C58.0646 55.0845 57.5292 56.57 56.5508 57.751L44.4903 72.3058C44.0491 72.8383 43.4958 73.2668 42.8699 73.561C42.244 73.8551 41.5609 74.0075 40.8694 74.0074H22.3581C21.371 74.0077 20.4089 73.6974 19.6081 73.1203L1.56129 60.1034C1.07812 59.7549 0.684615 59.2967 0.413176 58.7665C0.141736 58.2362 0.000124745 57.6491 1.10145e-09 57.0534L1.10145e-09 13.9679C-1.44611e-05 13.3702 0.14239 12.7812 0.415415 12.2495C0.688439 11.7179 1.08422 11.259 1.56997 10.9108C2.05572 10.5626 2.61745 10.3352 3.20862 10.2473C3.79978 10.1595 4.40337 10.2138 4.96936 10.4058L16.6226 14.3574L26.8266 1.4308C27.1906 0.96969 27.6575 0.600252 28.19 0.352087C28.7225 0.103922 29.3057 -0.0160696 29.8929 0.00172643C30.48 0.0195224 31.0549 0.174612 31.5714 0.454566C32.0878 0.734521 32.5307 1.13156 32.8661 1.61386Z" fill="#71D2FF"/>
<path fill-rule="evenodd" clip-rule="evenodd" d="M14.4056 75.1768C14.2258 75.5316 13.9645 75.8252 13.6492 76.0276C12.6758 76.6526 11.4363 76.2711 10.8806 75.1768L3.74597 61.1179H21.5403L14.4056 75.1768Z" fill="#71D2FF"/>
<path fill-rule="evenodd" clip-rule="evenodd" d="M27.1282 83.5817C26.9987 84.0655 26.7131 84.493 26.3157 84.798C25.9184 85.1029 25.4315 85.2682 24.9306 85.2682C24.4298 85.2682 23.9429 85.1029 23.5456 84.798C23.1482 84.493 22.8626 84.0655 22.7331 83.5817L17.9831 65.8494H31.8774L27.1282 83.5817ZM52.6984 75.5115C52.4467 75.673 52.1656 75.7833 51.8712 75.8359C51.5769 75.8886 51.275 75.8826 50.9829 75.8183C50.6909 75.754 50.4144 75.6327 50.1693 75.4613C49.9242 75.2899 49.7154 75.0718 49.5548 74.8196L44.3677 66.6897L57.8306 54.8212L53.6919 74.0897C53.561 74.6762 53.2039 75.1866 52.6984 75.5115Z" fill="#71D2FF"/>
<path fill-rule="evenodd" clip-rule="evenodd" d="M8.6121 41.464L8.44355 25.2301C8.41935 22.797 9.71935 21.0115 11.9694 21.4107C12.4177 21.4898 13.3669 21.7849 13.7919 22.0172L18.4806 24.572L24.3363 17.0615C24.8376 16.4186 25.4789 15.8985 26.2114 15.5408C26.944 15.183 27.7485 14.9971 28.5637 14.9971C29.3789 14.9971 30.1834 15.183 30.916 15.5408C31.6486 15.8985 32.2899 16.4186 32.7911 17.0615L43.4073 30.6785C43.5121 30.8132 43.6024 30.9551 43.6782 31.1019C46.8032 34.5777 48.6992 39.1398 48.6992 44.1357C48.6992 55.0309 39.6847 63.8632 28.5637 63.8632C17.4435 63.8632 8.42903 55.0309 8.42903 44.1357C8.42903 43.2301 8.49113 42.3373 8.6121 41.464Z" fill="#1CB0F6"/>
<path opacity="0.75" fill-rule="evenodd" clip-rule="evenodd" d="M22.6218 45.6543C22.6573 45.5422 22.7105 45.4365 22.7806 45.3413L26.8024 39.8897C26.9987 39.6238 27.2546 39.4076 27.5497 39.2587C27.8448 39.1097 28.1707 39.0321 28.5012 39.0321C28.8317 39.0321 29.1577 39.1097 29.4527 39.2587C29.7478 39.4076 30.0037 39.6238 30.2 39.8897L34.2218 45.3413C34.2379 45.3639 34.254 45.3865 34.2677 45.4091C35.6645 46.7841 36.5242 48.6623 36.5242 50.7333C36.5242 54.9486 32.9597 58.3655 28.5645 58.3655C24.1677 58.3655 20.6032 54.9486 20.6032 50.7333C20.6032 48.7833 21.3669 47.0034 22.6218 45.6543Z" fill="#1CDAF6"/>
<path opacity="0.593" fill-rule="evenodd" clip-rule="evenodd" d="M6.55161 14.3671L18.6653 18.7413L28.1589 4.56062C28.3316 4.30256 28.5655 4.09129 28.8397 3.94565C29.114 3.8 29.42 3.72453 29.7305 3.72597C30.041 3.72741 30.3463 3.80571 30.6192 3.95388C30.8921 4.10206 31.124 4.31549 31.2944 4.57514L43.2282 22.7687C43.4823 23.1561 43.5845 23.6236 43.5152 24.0817C43.4458 24.5398 43.2098 24.9561 42.8524 25.2509L7.10887 54.7187C6.83378 54.9454 6.49994 55.0892 6.14625 55.1334C5.79255 55.1777 5.43357 55.1205 5.11114 54.9685C4.78871 54.8165 4.5161 54.5761 4.32509 54.2751C4.13407 53.9742 4.03252 53.6251 4.03226 53.2687V16.1356C4.03231 15.8337 4.10504 15.5363 4.24431 15.2684C4.38357 15.0005 4.58528 14.7701 4.83237 14.5967C5.07947 14.4232 5.3647 14.3118 5.66394 14.2718C5.96319 14.2319 6.26765 14.2645 6.55161 14.3671Z" fill="#B4E7FF"/>
<path d="M15.9938 29.2679L11.8081 25.0823C11.4409 24.715 10.8455 24.715 10.4783 25.0823L6.27617 29.2844C5.90895 29.6516 5.90895 30.247 6.27617 30.6142L10.4618 34.7999C10.829 35.1671 11.4244 35.1671 11.7916 34.7999L15.9938 30.5977C16.361 30.2305 16.361 29.6351 15.9938 29.2679Z" fill="white"/>
<path opacity="0.593" fill-rule="evenodd" clip-rule="evenodd" d="M54.6024 52.8058L41.5968 68.509C41.4204 68.7222 41.1991 68.8937 40.9487 69.0115C40.6983 69.1293 40.4251 69.1904 40.1484 69.1905H29.3016C28.9338 69.1903 28.5742 69.0824 28.2671 68.8799C27.9601 68.6775 27.7191 68.3895 27.5741 68.0515C27.429 67.7135 27.3863 67.3404 27.4511 66.9784C27.5159 66.6164 27.6854 66.2813 27.9387 66.0147L51.7903 40.9058C52.0493 40.6331 52.3841 40.4443 52.7515 40.3638C53.1189 40.2833 53.502 40.3148 53.8513 40.4542C54.2006 40.5937 54.5001 40.8346 54.711 41.146C54.922 41.4574 55.0347 41.8249 55.0347 42.201V51.6066C55.0347 52.0445 54.8823 52.4687 54.6024 52.8058Z" fill="#B4E7FF"/>
<path d="M48.8729 48.9967L46.2486 46.3724C45.8814 46.0052 45.286 46.0052 44.9188 46.3724L42.2825 49.0087C41.9153 49.3759 41.9153 49.9713 42.2825 50.3385L44.9068 52.9628C45.274 53.33 45.8694 53.33 46.2366 52.9628L48.8729 50.3265C49.2401 49.9593 49.2401 49.3639 48.8729 48.9967Z" fill="white"/>
</svg>
