<svg width="36" height="32" viewBox="0 0 36 32" fill="none" xmlns="http://www.w3.org/2000/svg">
<mask id="mask0_2008_57" style="mask-type:alpha" maskUnits="userSpaceOnUse" x="4" y="2" width="32" height="30">
<path d="M34.1052 2.3158H6.10519C5.05875 2.3158 4.21045 3.1641 4.21045 4.21053V29.8948C4.21045 30.9412 5.05875 31.7895 6.10519 31.7895H34.1052C35.1516 31.7895 35.9999 30.9412 35.9999 29.8948V4.21053C35.9999 3.1641 35.1516 2.3158 34.1052 2.3158Z" fill="white"/>
</mask>
<g mask="url(#mask0_2008_57)">
<path d="M34.1052 2.3158H6.10519C5.05875 2.3158 4.21045 3.1641 4.21045 4.21053V29.8948C4.21045 30.9412 5.05875 31.7895 6.10519 31.7895H34.1052C35.1516 31.7895 35.9999 30.9412 35.9999 29.8948V4.21053C35.9999 3.1641 35.1516 2.3158 34.1052 2.3158Z" fill="#A0A0A0"/>
<path fill-rule="evenodd" clip-rule="evenodd" d="M36 33.2632V29.6843C36 30.8822 35.0574 31.8533 33.8947 31.7895C32.732 31.8533 31.7896 30.8822 31.7896 29.6843V33.2632" fill="#D2D2D2"/>
</g>
<path fill-rule="evenodd" clip-rule="evenodd" d="M1.47368 0H30.3158C31.1297 0 31.7895 0.6598 31.7895 1.47369V31.7895H1.47368C0.65979 31.7895 0 31.1297 0 30.3158V1.47369C0 0.6598 0.65979 0 1.47368 0Z" fill="#D2D2D2"/>
<path opacity="0.592857" d="M28.74 2.40002H3.05263C2.47128 2.40002 2 2.87129 2 3.45265V7.17437C2 7.75577 2.47128 8.23437 3.05263 8.23437H28.74C29.3214 8.23437 29.79 7.75577 29.79 7.17437V3.45265C29.79 2.87129 29.3214 2.40002 28.74 2.40002Z" fill="#A0A0A0"/>
<path opacity="0.592857" d="M9.37 10.2344H2.63158C2.28277 10.2344 2 10.5172 2 10.866V28.5502C2 28.899 2.28277 29.1818 2.63158 29.1818H9.37C9.7188 29.1818 10 28.899 10 28.5502V10.866C10 10.5172 9.7188 10.2344 9.37 10.2344Z" fill="#A0A0A0"/>
<path opacity="0.592857" fill-rule="evenodd" clip-rule="evenodd" d="M22.4917 22.5291H29.2601C29.6089 22.5291 29.7901 22.8119 29.7901 23.1607V28.5502C29.7901 28.899 29.6089 29.1818 29.2601 29.1818H22.4917C22.1429 29.1818 21.8601 28.899 21.8601 28.5502V23.1607C21.8601 22.8119 22.1429 22.5291 22.4917 22.5291Z" fill="#A0A0A0"/>
<path opacity="0.592857" fill-rule="evenodd" clip-rule="evenodd" d="M12.6316 22.5291H19.4C19.7488 22.5291 19.93 22.8119 19.93 23.1607V28.5502C19.93 28.899 19.7488 29.1818 19.4 29.1818H12.6316C12.2828 29.1818 12 28.899 12 28.5502V23.1607C12 22.8119 12.2828 22.5291 12.6316 22.5291Z" fill="#A0A0A0"/>
<path d="M29.15 10.2344H12.6316C12.2828 10.2344 12 10.5172 12 10.866V19.8944C12 20.2432 12.2828 20.5344 12.6316 20.5344H29.15C29.4988 20.5344 29.79 20.2432 29.79 19.8944V10.866C29.79 10.5172 29.4988 10.2344 29.15 10.2344Z" fill="white"/>
</svg>
